<?xml version="1.0" encoding="utf-8"?>
<!-- Generator: Adobe Illustrator 28.1.0, SVG Export Plug-In . SVG Version: 6.00 Build 0)  -->
<svg version="1.1" id="Слой_1" xmlns="http://www.w3.org/2000/svg" xmlns:xlink="http://www.w3.org/1999/xlink" x="0px" y="0px"
	 viewBox="0 0 120 40" style="enable-background:new 0 0 120 40;" xml:space="preserve">
<style type="text/css">
	.st0{fill:#FFFFFF;}
	.st1{fill:#1D1D1B;}
</style>
<g>
	<g>
		<path class="st0" d="M2.33,14.66H13.5v2.63H2.33V14.66z M6.43,15.96H9.4v9.44H6.43V15.96z"/>
		<path class="st0" d="M13.71,25.4v-8.18h2.89v6.59l-0.63-0.2l4.28-6.39h3.75v8.18h-2.88v-6.77l0.63,0.21l-4.4,6.56H13.71z"/>
		<path class="st0" d="M25.03,17.22h9.15v2.21h-9.15V17.22z M28.13,18.23h2.94v7.17h-2.94V18.23z"/>
		<path class="st0" d="M35.18,25.4v-8.18h2.94v5.9l-0.86-0.3l4.55-5.6h3.09l-7.12,8.18H35.18z M41.84,25.4l-2.33-3.99l2.21-1.55
			l3.42,5.54H41.84z M14.04,26.5h2.6L7.54,40h-2.6L14.04,26.5z"/>
		<path class="st0" d="M50.16,25.63c-1.05,0-1.97-0.18-2.75-0.54c-0.78-0.36-1.39-0.86-1.83-1.52c-0.44-0.65-0.66-1.41-0.66-2.26
			c0-0.87,0.22-1.63,0.66-2.28c0.44-0.65,1.05-1.15,1.83-1.52c0.78-0.36,1.7-0.54,2.75-0.54c1.04,0,1.95,0.18,2.74,0.54
			c0.79,0.36,1.4,0.87,1.84,1.52c0.44,0.65,0.66,1.41,0.66,2.28c0,0.85-0.22,1.6-0.66,2.26c-0.44,0.65-1.05,1.16-1.84,1.52
			C52.11,25.45,51.2,25.63,50.16,25.63z M50.16,23.47c0.48,0,0.89-0.09,1.22-0.26c0.34-0.17,0.6-0.42,0.78-0.74
			c0.18-0.32,0.27-0.71,0.27-1.15c0-0.46-0.09-0.85-0.27-1.17c-0.18-0.32-0.44-0.57-0.78-0.74c-0.34-0.17-0.75-0.26-1.22-0.26
			s-0.89,0.09-1.23,0.26c-0.34,0.17-0.61,0.42-0.79,0.74c-0.18,0.32-0.27,0.7-0.27,1.15c0,0.45,0.09,0.84,0.27,1.16
			c0.18,0.32,0.44,0.57,0.79,0.74C49.27,23.38,49.68,23.47,50.16,23.47z"/>
		<path class="st0" d="M56.37,25.4l0.52-4.1l-0.52-4.08h6.66c0.79,0,1.42,0.18,1.89,0.55c0.47,0.37,0.7,0.87,0.7,1.5
			c0,0.59-0.24,1.07-0.71,1.44c-0.47,0.37-1.12,0.59-1.95,0.68l0.19-0.47c0.96,0.04,1.7,0.24,2.21,0.62
			c0.51,0.37,0.77,0.89,0.77,1.55c0,0.71-0.26,1.27-0.79,1.69c-0.52,0.42-1.23,0.63-2.12,0.63H56.37z M59.19,24.78l-1.13-1.2h4.18
			c0.32,0,0.55-0.07,0.71-0.21c0.16-0.14,0.24-0.33,0.24-0.58c0-0.23-0.08-0.42-0.25-0.57c-0.17-0.15-0.43-0.22-0.79-0.22h-3.51
			v-1.52h3.16c0.3,0,0.52-0.07,0.67-0.2c0.15-0.13,0.23-0.31,0.23-0.53c0-0.22-0.07-0.4-0.21-0.53c-0.14-0.13-0.35-0.2-0.64-0.2
			h-3.78l1.12-1.19l0.47,3.47L59.19,24.78z"/>
		<path class="st0" d="M70.92,25.4v-8.18h2.89v6.59l-0.63-0.2l4.28-6.39h3.75v8.18h-2.88v-6.77l0.63,0.21l-4.4,6.56H70.92z"/>
		<path class="st0" d="M86.61,25.4V14.66h2.95v8.38l-0.79-0.62l6.09-7.76h3.14L89.29,25.4H86.61z M91.74,20.27l2.18-1.8l4.22,6.93
			h-3.36L91.74,20.27z"/>
		<path class="st0" d="M101.43,19.01c-0.53,0-1.01-0.1-1.42-0.29c-0.41-0.19-0.73-0.46-0.96-0.79c-0.23-0.34-0.34-0.73-0.34-1.17
			c0-0.44,0.11-0.83,0.34-1.17c0.23-0.34,0.55-0.6,0.96-0.79c0.41-0.19,0.88-0.28,1.42-0.28c0.53,0,1,0.09,1.4,0.28
			c0.4,0.19,0.72,0.45,0.95,0.79c0.23,0.34,0.35,0.73,0.35,1.17c0,0.44-0.12,0.83-0.35,1.17c-0.23,0.34-0.55,0.6-0.95,0.79
			C102.43,18.92,101.97,19.01,101.43,19.01z M101.43,17.83c0.34,0,0.61-0.09,0.79-0.27c0.19-0.18,0.28-0.44,0.28-0.79
			s-0.09-0.61-0.28-0.79c-0.19-0.18-0.45-0.27-0.79-0.27c-0.35,0-0.62,0.09-0.81,0.27c-0.19,0.18-0.28,0.44-0.28,0.79
			s0.09,0.61,0.28,0.79C100.81,17.74,101.08,17.83,101.43,17.83z"/>
	</g>
	<rect x="25.04" y="0" class="st0" width="9.1" height="16.1"/>
	<rect x="35.24" y="3.51" class="st0" width="2.9" height="4.79"/>
	<rect x="21.14" y="3.51" class="st0" width="2.9" height="4.79"/>
	<rect x="19.14" y="4.63" class="st0" width="1" height="2.55"/>
	<polygon class="st0" points="21.04,16.1 26.56,7.92 29.14,7.9 23.64,16.1 	"/>
	<polygon class="st0" points="104.94,19 107.98,14.53 110.6,14.51 107.44,19 	"/>
	<polygon class="st0" points="109.84,19 112.88,14.53 114.54,14.5 111.44,19 	"/>
	<polygon class="st0" points="112.24,19 115.28,14.53 116.94,14.5 113.84,19 	"/>
	<rect x="28.14" y="26.5" class="st0" width="2.9" height="13.5"/>
	<polygon class="st0" points="42.54,26.5 45.84,26.5 54.14,40 50.84,40 	"/>
</g>
<path class="st1" d="M-2.67,14.66"/>
<path class="st1" d="M23.14,40"/>
</svg>
