<?xml version="1.0" encoding="utf-8"?>
<!-- Generator: Adobe Illustrator 28.1.0, SVG Export Plug-In . SVG Version: 6.00 Build 0)  -->
<svg version="1.1" id="Слой_1" xmlns="http://www.w3.org/2000/svg" xmlns:xlink="http://www.w3.org/1999/xlink" x="0px" y="0px"
	 viewBox="0 0 20 20" style="enable-background:new 0 0 20 20;" xml:space="preserve">
<style type="text/css">
	.st0{fill:#FFFFFF;}
</style>
<g>
	<path class="st0" d="M2.82,5.68c-0.35-0.56-0.55-1.14-0.6-1.72C2.17,3.4,2.27,2.86,2.5,2.38C2.74,1.9,3.11,1.5,3.62,1.19
		s1.03-0.47,1.57-0.47c0.54,0,1.05,0.16,1.54,0.46c0.49,0.3,0.9,0.74,1.26,1.31c0.35,0.56,0.55,1.13,0.6,1.69S8.54,5.26,8.3,5.75
		c-0.24,0.49-0.61,0.89-1.11,1.2S6.15,7.42,5.61,7.41c-0.54,0-1.05-0.16-1.53-0.45C3.58,6.68,3.18,6.26,2.82,5.68z M4.18,4.84
		C4.4,5.2,4.68,5.43,5.01,5.49C5.34,5.57,5.7,5.48,6.1,5.23C6.5,4.98,6.74,4.7,6.82,4.37C6.91,4.04,6.84,3.7,6.61,3.34
		C6.38,2.96,6.1,2.74,5.77,2.67C5.44,2.59,5.08,2.68,4.68,2.93S4.04,3.46,3.96,3.79C3.87,4.12,3.95,4.47,4.18,4.84z"/>
</g>
<polygon class="st0" points="5.14,9.41 12.28,9.46 14.02,12.23 6.79,12.06 "/>
<polygon class="st0" points="8.36,14.62 15.5,14.67 16.63,16.41 9.42,16.32 "/>
<polygon class="st0" points="9.94,17.17 17.08,17.22 18.2,18.97 10.99,18.87 "/>
</svg>
