<?xml version="1.0" encoding="utf-8"?>
<!-- Generator: Adobe Illustrator 28.1.0, SVG Export Plug-In . SVG Version: 6.00 Build 0)  -->
<svg version="1.1" id="Слой_1" xmlns="http://www.w3.org/2000/svg" xmlns:xlink="http://www.w3.org/1999/xlink" x="0px" y="0px"
	 viewBox="0 0 1920 1920" style="enable-background:new 0 0 1920 1920;" xml:space="preserve">
<style type="text/css">
	.st0{fill:none;stroke:#B3B3B3;stroke-width:3;stroke-miterlimit:10;}
</style>
<path class="st0" d="M0.1,17.5c65,45.8,135.5,76.7,204.5,65.7s95,3,130,38s46,45,45,96s-9,134,29,177s89.5,127.2,0,178.8
	c-70.5,40.7-45,103.2-56,201.2s-11.5,224.5-148,224C58.7,997.7,34.1,877.8,37.1,850.8c10.6-95,59.7-99.3,51-230
	c-11-166-87.5-161-87.5-161"/>
<path class="st0" d="M0.6,58.3c113.5,62.4,181.5,73.4,243.5,88.4s99,38,95,126s17,131,40,151s32,36,33,63s-55,55-78,88
	s19,245-30,341s-168,55-209,11s-43-104,0-193s16-188-5-244S0.6,420.9,0.6,420.9"/>
<path class="st0" d="M0.6,389.2c77.5-1.5,155.5,108.5,155.5,132.5c0,34.1-4,103-63,289c-22.4,70.6,50,143,106,142
	c49.5-0.9,111-36,109-146s-31-225-55-247c-69.2-63.4-33-67.7,7-85c53-23,62-10,38-119c-21.5-97.6-1-134-117-179
	C63.9,131.3,35.1,105.5,0.6,95.1"/>
<path class="st0" d="M206.4,619c34.6-6.5,80.2,102.2,79.2,194.2s-46,115-86,115s-88-43-88-94S170.1,625.8,206.4,619z"/>
<path class="st0" d="M206.4,722.4c25.6,2.5,51.7,57.3,54.7,97.3s-24,75.5-62.5,75.8c-28.5,0.2-59.5-31.8-59.5-63.8
	C139.1,788.7,182.6,720.1,206.4,722.4z"/>
<path class="st0" d="M0,502.5c30.5,1.9,75.1,83.2,72.1,176.2S0.6,857.2,0.6,857.2"/>
<path class="st0" d="M0.6,798.3c44.5-60.5,45.5-70.5,47.5-125.5s-32-94.2-48-105.2"/>
<path class="st0" d="M1.1,348.5c23.5,5.2,22,0.2,77,21.2s49,49,98,44s57.6-26.9,53.3-93.5c-4.3-66.5-36.2-99.4-73.8-118
	S16.1,136.1,0.6,133.4"/>
<path class="st0" d="M-2.1,204.7c51.5-3.9,125.2,20.1,148.2,57.1s9,64-55,63S0.6,273.9,0.6,273.9"/>
<path class="st0" d="M0.6,993.6c24,66.7,20,201.7,59,282.7s122.6,100.1,169.8,88c19.6-5,15.7-39.5,55.7-63.5
	c42.8-25.7,77.3-76.3,69.5-154.5c-15.5-155.5,91-133,141.5-164.5c84.1-52.5,84-130,99.5-198.5c21.7-96-12-116,14-151s97-38,170-97
	s89-153,85-219s-105-102-213-148S437.5,85.1,438.4,5.3c0-1.7,0.1-3.5,0.2-5.2"/>
<path class="st0" d="M1002.6-0.1c1.5,2.9,3,5.9,4.5,8.8c28.2,56.3,52,102.5,18,190.8s-21,84.2,34,132.2s31,73,72,107s206,60,226,31
	s-4-76,44-124s146,4,208-19s64-90,39-166s-192.5-38.9-190-110c1-28,12-45.5,12-45.5c1.1-1.8,2.1-3.6,3.2-5.2"/>
<path class="st0" d="M1920.1,392.5c-74.5-6.4-111,5.2-147,67.2s-140,142-254.4,134.8s-151.6,12.2-242.6,74.2s-86,120-9,176
	s98,92,72,183s-160,112-245,73s-204-83-242-48s-4,125-20,168s-154,102-283,125s-165,5-151-104s-17-102,22-163s182-40,190.9-126
	s24.1-250,67.4-309.2c43.3-59.2,173.7-104.8,204.7-152.8s57-192,50.5-216.9S818.1,153.8,684.1,116.8S518.2,47.6,507.8,5.3
	c-0.4-1.8-0.8-3.5-1.2-5.2"/>
<path class="st0" d="M537.7,0c0.8,1.8,1.6,3.5,2.5,5.2c30,58.6,190.4,93,262.4,129s119,93,162.7,49.7s29.7-120.4,0-178.7
	c-1-1.9-2-3.7-3.2-5.4"/>
<path class="st0" d="M820.2,0c0.9,1.8,1.8,3.5,2.7,5.2c23.7,43.1,20.2,68.5-61.8,63.5S609.3,43.2,578.5,5.3c-1.4-1.7-2.7-3.5-4-5.2"
	/>
<path class="st0" d="M618.7,0c2.5,1.9,5.2,3.6,8,5.2c61.8,35.3,101,28.2,119.5,0c1.1-1.7,2.2-3.5,3.3-5.2"/>
<path class="st0" d="M472.8,0c0.2,1.7,0.5,3.5,0.8,5.2c6.9,43.5,18.5,70.5,164.5,123.5s222,91,247,146s7,135-15,191
	s-141.4,122.1-184.7,142s-49.3,36-63.3,127s-14,178-44,214s-137,68-174,103s-17,92-25,168s-35,67-30,113s80,52,121,45s121-36,193-22
	s118,91,132,135s41,17,32-39s-53-75,16-118s61-119,45-189s49-80,159-30s274,39,300-6s54-105,123-8s56,158,14,196s-90,9-137,46
	s-3,80-70,129s-38,130,62,173s173.5,80.3,156,168c-5,25-58,60-80.9,106.5"/>
<path class="st0" d="M1417-0.1c-1,1.6-2,3.2-2.9,4.8c0,0-40,54-7,111c43.9,75.9,131,12,186,67s-2,121-95,101s-110-15-142,42
	s-59,98-137,99s-83-58-116-91s-67-92-37-143s20.2-120.4-28.2-185.5c-1.4-1.8-2.7-3.6-4-5.4"/>
<path class="st0" d="M1062.8-10.8c2.8,3.8,5.8,7.3,9.1,10.7c3.5,3.6,7.2,7,11,10.2c9.4,7.8,24.2,26.2,33.2,68.7c14,66-37,156-21,186
	s83,132,141,113s124-129,121.4-178.2S1340.1,43,1365.9,5.3c1.2-1.8,2.4-3.5,3.7-5.3"/>
<path class="st0" d="M1244.1,33.8c64,1.4,59,42,56,143s-42.2,146.6-80.1,142.8c-37.9-3.8-59-17.8-77-75.8S1154.1,31.8,1244.1,33.8z"
	/>
<path class="st0" d="M1921.1,98.5c-48-7-134-49.8-120.3-93.3c0,0,0.7-1.9,1.8-5.4"/>
<path class="st0" d="M663.5,215c115.4,60.7,166,51.2,178,128.2s-13.3,121.2-51.7,163.6c-38.3,42.4-139.8,69.9-188.8,71.9
	S549,642.3,567,682c18,39.7,10,144.7-20,205.7s-121,113-171,99s-19.4-99-8.2-188.5s23.2-183.5,93.2-206.5s52-118,17-164
	s-80-114-60-217s77-84,144-56S626,195.3,663.5,215z"/>
<path class="st0" d="M470.1,188.8c29-25,85-15,135,40s115.8,47,164.9,91s66.1,98,13.1,159S643.8,565,596.5,540.9
	S479.4,366.5,458.2,312.6S470.1,188.8,470.1,188.8z"/>
<path class="st0" d="M509.1,247.8c-27,26,46.3,295.2,163.6,259.1s128.7-104.9,62-144s-112.7-41.1-141.7-73.1
	S534.1,223.8,509.1,247.8z"/>
<path class="st0" d="M472.6,664.3c60,0.8,83,70,71,159s-84,125-124,124s-59.7-92.3-24.3-156.7S401.6,663.3,472.6,664.3z"/>
<path class="st0" d="M474.1,752.8c33,0,37.8,46.6,29.4,96.8s-85.4,78.1-91.4,7.7C406.1,786.8,454.1,752.8,474.1,752.8z"/>
<path class="st0" d="M111.6,1020.4c42.1,4.2,139.5,1.6,174,0s38.5,15.4,35.5,47.4s4,61,6,87s-15,58.4-41.5,73.2s-65.5,39.6-87,58.2
	s-45.5,28.7-87-16.8s-46.5-107.6-48.5-167.6S68.1,1016,111.6,1020.4z"/>
<path class="st0" d="M182.1,1057.8c-54.8,8.2-85,103-32,133s75.4,3,111.2-8c35.8-11,25.8-36,24.3-83.5
	C284.1,1051.8,242.1,1048.8,182.1,1057.8z"/>
<path class="st0" d="M494.1,1063.8c63.1-26.2,155.1-66,223.1-10c67.9,56,56.9,121-0.1,170s-158,112.8-223,109.9s-83-13.9-73-102.9
	S429.1,1090.8,494.1,1063.8z"/>
<path class="st0" d="M507.1,1091.6c56.6-34.5,145-15.9,163,27.1s20,88-43,138s-133.6,78.6-165.3,36.3
	C430.1,1250.8,440.1,1132.5,507.1,1091.6z"/>
<path class="st0" d="M521.1,1117.8c47.5-25.4,101,1,110,51s-66,123.9-124,118.9C449.1,1282.8,450.1,1155.8,521.1,1117.8z"/>
<path class="st0" d="M512.7,1160.9c39-34.6,77.8-20.9,78.6,26.5s-65.2,85.4-84.2,54.4C488.1,1210.8,501.2,1171,512.7,1160.9z"/>
<path class="st0" d="M802.1,978.8c73,21,181,34,240,71c59,37,196.8,68,243.4,0c46.6-68,38.6-146-35.4-183s-137-108-160-147
	s10-12,62-25s87-34,138-81s-15-97-59-110s-96,0-136-12s-11.7-89.8-62.3-128.9s-87.7,25.9-110.7,102.9s-170,137-223,183
	s-58,225-58,264s36.5,45.2,50.8,49.5C710.1,967.8,776.7,971.5,802.1,978.8z"/>
<path class="st0" d="M748.1,921.8c62.2,0,87,37,179,55s142,71,217,83s149-35,137-110s-83-42-154-130s-158-61-182-91s-16-75-9-103
	s9-49,39-69s43-52,28-102s-39,32.8-45.5,55.4c-6.5,22.6-44.5,60.6-128.5,81.6s-133.5,89-152.8,161s-20.5,119.7,7.7,146.8
	C712.1,926.8,738.1,921.8,748.1,921.8z"/>
<path class="st0" d="M784.1,875.8c68.5-9.8,105,44.8,149.5,62.9s90.5,19.1,153.5,53.1s105,57,140,14s-1-72-58-101s-64-102-148-111
	s-152,12-146-85S821.3,600,742.2,679.9s-51.1,173.9-27.1,187.9S770.1,877.8,784.1,875.8z"/>
<path class="st0" d="M753.9,828.2c49.2,14.6,72.2-53.4,71.2-99.4s-44-61-83,11S753.9,828.2,753.9,828.2z"/>
<path class="st0" d="M1003.1,833.8c72,1,66,78,41,79s-77,4-86.5-39.5S1003.1,833.8,1003.1,833.8z"/>
<path class="st0" d="M1157.9,546.5c63.2-13.8,77.2,14.2,72.2,39.2s-27.3,47-72.2,45.5s-64.1-23.8-65.9-44.2
	C1090.1,566.8,1157.9,546.5,1157.9,546.5z"/>
<path class="st0" d="M1426.1,468.8c7.1,80.7,32,89.2,114.5,92.1c82.5,2.9,86.3-31,139.4-78.6c53.1-47.5,4.1-91.5-50.9-93.5
	s-81.7-25.8-139.8-25.9C1431.1,362.8,1423.1,434.8,1426.1,468.8z"/>
<path class="st0" d="M1920.3,349.1c-77.2-17.4-167.2-84.4-169.2-167.4s128-57.2,169-45.2"/>
<path class="st0" d="M1921.1,424.5c-65.5-12.8-89,31.2-139,92.2s-158,102-231,105s-187.9,10.1-249.5,70c-61.5,60-37.5,120,39.5,174
	s42,103,78,108s80-103,181-110c32.4-2.2,61,10.2,92,13c65.6,5.9,128,12.5,163,55c49.7,60.4,60,179.4,60,266.8
	c0,23,4.8,29.9,4.8,29.9"/>
<path class="st0" d="M1692.3,876.7"/>
<path class="st0" d="M1920.1,998.5c-32.4-118.5-125-131.8-223-148.8s-150-9-193,22s-73,46-148-28s-93-106-3-150s98-32.7,241-55.3
	s180-49.7,223-118.7s103-57.2,103-57.2"/>
<path class="st0" d="M1921.5,504.6c-44.4-13.9-63.4,13.1-100.4,73.1s-77,69.6-227,91.8s-233,42.2-238,87.2s66,96,108,89
	s56-34,170-28s211.9,63.7,251.9,59c27.1-3.2,34.1-17.2,34.1-17.2"/>
<path class="st0" d="M1921.6,797.8c-21.5,20-12.5,65-123.5,22s-216-61-274-52s-81.8-3.4,33.6-47.2s142.2-2.5,206.8-40.7
	c64.6-38.1,83.4-106.2,124.6-115.1c24-5.2,31.5,5.8,31.5,5.8"/>
<path class="st0" d="M1921.6,637.9c-58.5-8.2-52.5,35.8-92.5,66.8s-55,65.5,0,80.2c55,14.8,62-20.2,75-33.2s17.5-10.7,17.5-10.7"/>
<path class="st0" d="M1920.1,61.5c-23-12-55.8-28.7-65.1-61.5"/>
<path class="st0" d="M1920.6,20.2c-10-2.5-19.2-9.5-26.6-20.1"/>
<path class="st0" d="M390.5-1.1c-0.2,0.4-0.3,0.8-0.5,1.1c-1,2.6-1.8,5.2-2.4,7.9c-1.2,4.9-7.7,15.3-41.5,19.9c-45,6-54-23-102-19
	S127.5,45.6,49.2,5.3c-3.3-1.7-6.5-3.5-9.4-5.2"/>
<path class="st0" d="M438.1,1919.6c0.7-68.5,62.7-158.5,94.7-222.5s35-139,116-149s63-32,63-71s-44-86-88-96s-42.2,4.3-126.6,12.7
	s-134.4,5.3-190.4,1.3s-55,52-57,117s4,115-71,139s-158,27.9-178.5,86.5"/>
<path class="st0" d="M1469.9,1919.6c25-43.5,65-42.5,73-123.5s-58-103-125-137s-114-72-114-123s20-24,49-95s51-85,111-92
	s96-41,89-127s-71-132-77-202s74.8-134.7,130.9-133.8c56.1,0.8,92.1,16.8,139.1,17.8s94,16,125,109s-1,202-3,251s-16,34-74,53
	s-92,125-93,189c-0.7,41.5,94.5,27.6,159.2,5.4c35.2-12.1,59-34,59-34"/>
<path class="st0" d="M507.6,1919.6c-19.7-80.5,6.3-124.5,54.3-198.5s59.1-117.7,142.5-86.8c83.5,30.8,84.5,86.8,119.5,131.8
	s45,64,91,70s71,45,92,87"/>
<path class="st0" d="M965.1,1919.6c-24.2-47.5-97.9-22.4-134.6-87c-36.7-64.5-71.8-161.3-144.2-165.4s-76.4,26.9-118.4,83.9
	s-53.7,118-27.9,168.5"/>
<path class="st0" d="M578.3,1919.6c-43.4-53.5-15.7-119.7,17.9-166.6c33.6-46.9,92-70.3,149.8-16.1c57.8,54.2,49.4,133.2,76.6,182.7
	"/>
<path class="st0" d="M746,1919.6c35.8-54.5,25.8-130.5-17.2-164.5s-78-13-111,16s-51.6,114,8.7,148.5"/>
<path class="st0" d="M1037.6,1919.6c-42.8-57.5-66.8-97.5-121.8-116.5s-90-79-106-127s-90-88-147-86s-102,71-131,137
	s-73,101-58.5,192.5"/>
<path class="st0" d="M1365.7,1919.6c42.2-61.5,76.2-93.5,76.2-141.5s-100-104-120-79s-14,69-42,114s-76,40-85-40s16-48,15-168
	s-161-105-168-182s42-70,103-82s145-69,138-122s-102-55-155-58s-123-36-160-28s-32,89.8,0,141.9c32,52.1,13.8,78.8-18.1,92.9
	c-31.9,14.2-59.9,91.2-65.9,153.2s-50,58-46,140s76,104.5,122.5,133.2c34.8,21.5,81.1,80.8,102.2,109.2c5.8,7.8,12.6,14.7,20.1,20.9
	"/>
<path class="st0" d="M633.2,1828.1c4.8-50.9,68.7-75.9,91.7-14.9s-12,79-34,85S627.5,1889,633.2,1828.1z"/>
<path class="st0" d="M1.1,1694.5c31.5-47.6,126.8-46.4,187.8-109.4s-1-189-66-195S0.4,1224.5,0.4,1224.5"/>
<path class="st0" d="M0.4,1474.2c47.5-57.1,111.5-67.1,143.5-14.1s13,89-43,118S0.1,1648.5,0.1,1648.5"/>
<path class="st0" d="M51.2,1920.5c-33.9-13.1-50.1-37-50.1-37"/>
<path class="st0" d="M-0.9,1784.5c34.2-73.7,98.9-84.3,156.3-78.9s112.6-7.1,130.5-162.8s81.9-94.7,198.9-123.7s154,2,165,27
	s-7.6,65.6-58.8,87.3s-37.2,103.7-75.2,151.7c-36.5,46.1-102.1,173.4-125.6,228.1c-1.2,2.9-1.4,4.2-2.2,7.3"/>
<path class="st0" d="M342.9,1880.1c57.3-7.6,93.9-121.6,122.5-160.8c28.5-39.2,54.5-83.2,56.5-135.2s56.1-83.1,50-121
	c-6-38-71.3-11.8-127.7-11.4c-56.4,0.4-99.4,17.4-127.4,68.4s5,149-40,198s-73.3,65-120.6,40s-113.4-14-129.4,36s14,102,70,101
	s55-35,126-38S282.9,1888.1,342.9,1880.1z"/>
<path class="st0" d="M426.9,1488.1c80,5.8,79,25,72,83s-15,103-62.8,142.1s-69.6,118-109.1,88.9c-20.2-14.9,22.8-91.9,9.8-182.9
	S371.9,1484.1,426.9,1488.1z"/>
<path class="st0" d="M425.9,1532.1c25.1,3.3,32,18,32,54s-3.9,72.5-30,80.7c-26,8.3-46,1.3-55-34.7S365.9,1524.1,425.9,1532.1z"/>
<path class="st0" d="M880.3,1648.1c-4.8,67.9,20.5,74,77,111s78.5,75,123.5,112s74.1-3.5,67.1-62.8c-7.1-59.2,25.9-96.2,24.9-167.2
	s-60-111-120-132s-83.4-71.5-108.2-21.2S884.8,1584.1,880.3,1648.1z"/>
<path class="st0" d="M930.9,1579.1c35.5-54.8,52-53,127-26s82.8,44.7,79.9,116.9c-2.9,72.1-28.9,146.1-65.9,133.1
	s-100.6-69.9-132.3-89.9S908.9,1613.1,930.9,1579.1z"/>
<path class="st0" d="M960.4,1600.8c32.5-33.1,75.4-25.4,111,0c35.5,25.4,48.5,38.4,36.5,83.4s-31,75-52,69s-75-26.6-98.5-77.3
	S953.9,1607.4,960.4,1600.8z"/>
<path class="st0" d="M1102,1198.3c93.9,6.8,104.9,42.8,65.9,66.8s-112.3,15.2-126.2-33.4C1027.9,1183.1,1102,1198.3,1102,1198.3z"/>
<path class="st0" d="M1446.9,1156.1c33,40,18,76.5-5,97.2s-44,5.8-61-26.2s-1-58,19-78S1446.9,1156.1,1446.9,1156.1z"/>
<path class="st0" d="M1637.9,1899.1c72,18,181-32,209-164s63.6-178.8-49.2-156.4s-180.8,20.4-151.8-126.6s95-140,159-202
	s75.4-124.3,45.7-243.7s-172.7-64.3-229.7-87.3s-102,37-110,79s39,94,71,176s13,189-65,199s-105.3,20.4-143.2,93.2
	c-37.8,72.8-42.8,123.8,82.2,175.8s137,100,132,176S1637.9,1899.1,1637.9,1899.1z"/>
<path class="st0" d="M1615.9,1737.1c14.3,104.5,89,164,160,81s78-212-45-187s-149,15.6-137-123.2s-84-103.8-159-76.8
	s-70.1,166.4,68.5,200.7S1605.9,1664.1,1615.9,1737.1z"/>
<path class="st0" d="M1667.8,1705.7c36.1-54.5,112.1-54.5,116.1,13.5s-57.7,127-102.8,85.5S1667.8,1705.7,1667.8,1705.7z"/>
<path class="st0" d="M1424.9,1524.1c-12.7,66.8,143,95,131-7S1444.9,1419.1,1424.9,1524.1z"/>
<path class="st0" d="M1638.1,1202.3c20.8,84.3,23.7,96.8,112.7,39.8s104-122,81-222s-73.8-48-133.4-57.5
	c-59.6-9.5-138.6-50.5-151.6,31.5S1605.4,1069.6,1638.1,1202.3z"/>
<path class="st0" d="M1670.8,1110.5c34.7,95.4,86.1,104.6,123.1,47.6s38-183-43-169S1640.8,1027.9,1670.8,1110.5z"/>
<path class="st0" d="M1800.2,1919.5c0,0,52.3-154.5,79.3-211.5s40.5-57.8,40.5-57.8"/>
<path class="st0" d="M1856.1,1920.5c-9.3-26.4-8.2-64.1,7.4-108.5c33-94,56.5-115.8,56.5-115.8"/>
<path class="st0" d="M1897.6,1920c-19.9-23.2-27.1-70.3-3.5-127.5c19.6-47.5,27-54,27-54"/>
<path class="st0" d="M1920,1784.3c-22.5,29.7-15.5,80.5,0,101.1"/>
<path class="st0" d="M1919.9,277c-20.1-25.6-13.6-69.6,0-70.3"/>
<path class="st0" d="M0.1,635.6c6,1.7,14.9,5.9,17.6,18c3.8,16.7-1.8,68.3-9.9,79.7c-4.6,6.5-7.2,5.6-7.2,5.6"/>
</svg>
